Coordinates
version=1
nRows=27
nColumns=19
inDegrees=yes

Units are S.I. units (second, meters, Newtons, ...)
If the header above contains a line with 'inDegrees', this indicates whether rotational values are in degrees (yes) or radians (no).

endheader
time	pelvis_tilt	pelvis_list	pelvis_rotation	pelvis_tx	pelvis_ty	pelvis_tz	hip_flexion_r	hip_adduction_r	hip_rotation_r	knee_angle_r	knee_angle_r_beta	ankle_angle_r	hip_flexion_l	hip_adduction_l	hip_rotation_l	knee_angle_l	knee_angle_l_beta	ankle_angle_l
     17.14000000	     -1.03287943	      3.56154960	      0.41050097	      2.26302758	      0.98655116	      0.99327290	     -8.87709228	     -7.78654339	    -15.71270214	     48.00984648	      0.83792989	    -10.38804513	     18.92026818	      5.76199798	     -2.93926374	     12.25702977	      0.21392553	      6.58081245
     17.14666667	     -0.72328678	      4.12383725	      0.58583837	      2.26255366	      0.98312803	      0.99235353	     -7.97672977	     -8.51546071	    -14.80177473	     51.38192104	      0.89678370	     -9.46413882	     19.14935898	      6.30473319	     -3.62284502	     14.52553471	      0.25351841	      6.51557115
     17.15333333	     -0.35841061	      4.64760298	      0.73154456	      2.26191111	      0.97942181	      0.99165052	     -7.03143419	     -9.13584869	    -13.78554973	     54.78308118	      0.95614514	     -8.52788840	     19.40983424	      6.74215850	     -4.33063343	     17.16557704	      0.29959584	      6.59354985
     17.16000000	      0.05289196	      5.10381792	      0.90193254	      2.26113690	      0.97542934	      0.99101222	     -6.06947176	     -9.63459294	    -12.77962489	     58.16405243	      1.01515422	     -7.63161338	     19.68203780	      7.08022295	     -4.93800990	     20.08832389	      0.35060739	      6.86303744
     17.16666667	      1.08330349	      5.69003217	      1.18702290	      2.26044969	      0.97191964	      0.99038784	     -5.89057234	    -10.28541231	    -12.16662606	     61.32438082	      1.07031236	     -6.80605104	     19.13283184	      7.60822280	     -5.24296602	     22.87480888	      0.39924073	      7.33053002
     17.17333333	      0.90087394	      5.83611345	      1.36158606	      2.25928012	      0.96680265	      0.98988493	     -4.02432541	    -10.37792157	    -11.00716959	     64.74589552	      1.13002905	     -6.04631559	     20.13940350	      7.58430339	     -5.62768337	     26.13985653	      0.45622656	      8.07120670
     17.18000000	      1.83742849	      6.30371549	      1.65352318	      2.25838074	      0.96299790	      0.98934670	     -3.62208386	    -10.89388418	    -10.45950289	     67.74073732	      1.18229890	     -5.35426945	     19.58298863	      8.01758054	     -5.64537432	     28.85253780	      0.50357178	      9.05495508
     17.18666667	      1.62635436	      6.36928521	      1.87800774	      2.25704717	      0.95785846	      0.98879687	     -1.65338704	    -10.93488843	     -9.50961910	     70.89394013	      1.23733267	     -4.73496705	     20.40783369	      8.01268497	     -5.67338538	     31.78977413	      0.55483623	     10.28148468
     17.19333333	      1.88474167	      6.60878174	      2.19273885	      2.25580899	      0.95345593	      0.98817807	     -0.30954548	    -11.23711748	     -8.91834130	     73.74175163	      1.28703636	     -4.09238275	     20.46398093	      8.28691278	     -5.47331420	     34.28644201	      0.59841130	     11.65856557
     17.20000000	      2.55529143	      6.93995252	      2.49312072	      2.25467944	      0.94983451	      0.98754761	      0.51144146	    -11.71399987	     -8.52881231	     76.26922423	      1.33114908	     -3.49792766	     19.82014079	      8.70671919	     -5.17425498	     36.36042552	      0.63460914	     13.24542822
     17.20666667	      2.11780115	      7.02925108	      2.78206746	      2.25326738	      0.94517738	      0.98689029	      2.80073775	    -11.93329810	     -7.86612864	     78.86037505	      1.37637319	     -2.94891937	     20.39764295	      8.90822494	     -4.88083123	     38.43653205	      0.67084404	     14.86116706
     17.21333333	      2.11876880	      7.17981348	      3.04443887	      2.25200961	      0.94149122	      0.98624922	      4.52104678	    -12.27024871	     -7.37246506	     81.06594843	      1.41486771	     -2.31287147	     20.22581944	      9.20669614	     -4.52024756	     40.06510124	      0.69926793	     16.54113252
     17.22000000	      2.33253626	      7.38874201	      3.25674876	      2.25090297	      0.93855907	      0.98563119	      5.96377080	    -12.75701522	     -6.99861604	     82.94535124	      1.44766948	     -1.61840084	     19.55808861	      9.57601430	     -4.14874450	     41.25721558	      0.72007425	     18.20906982
     17.22666667	      1.95212800	      7.48628211	      3.38902219	      2.24976278	      0.93542651	      0.98510618	      8.20377941	    -13.09622112	     -6.39875056	     84.67333999	      1.47782857	     -1.05413185	     19.43994175	      9.82638077	     -3.86804381	     42.27226890	      0.73779027	     19.71357934
     17.23333333	      1.84140152	      7.59779006	      3.42684373	      2.24885108	      0.93315979	      0.98465326	     10.09198459	    -13.50656490	     -5.89320960	     86.03151582	      1.50153321	     -0.42374009	     18.77903488	     10.07149177	     -3.61818893	     42.88886796	      0.74855196	     21.13938575
     17.24000000	      1.99970685	      7.57333371	      3.49672259	      2.24813211	      0.93187761	      0.98421172	     11.56677260	    -13.75860884	     -5.58027615	     86.94830761	      1.51753425	      0.23008758	     17.61395032	     10.17281206	     -3.23584706	     43.18272593	      0.75368075	     22.45779778
     17.24666667	      1.77338236	      7.71075071	      3.26611081	      2.24754842	      0.93061218	      0.98407565	     13.61554761	    -14.17256534	     -4.91122906	     87.71891930	      1.53098396	      0.91296580	     16.70017182	     10.37052633	     -3.21917268	     43.13794832	      0.75289923	     23.44775730
     17.25333333	      1.75623777	      7.50603821	      3.23109571	      2.24712718	      0.93035331	      0.98376611	     15.22561316	    -14.21545360	     -4.66528881	     87.98593937	      1.53564434	      1.49030781	     15.41180900	     10.27082691	     -2.81505890	     42.89352100	      0.74863317	     24.35401420
     17.26000000	      1.60551379	      7.57649661	      2.75054995	      2.24686892	      0.93035716	      0.98401306	     17.14229065	    -14.45094144	     -3.94645827	     88.09028211	      1.53746546	      2.08272909	     14.10585589	     10.30227783	     -3.04227924	     42.27385553	      0.73781797	     24.89926469
     17.26666667	      1.41535787	      7.26867383	      2.66637505	      2.24682612	      0.93103247	      0.98384859	     18.77788472	    -14.38660993	     -3.90451025	     87.70104214	      1.53067194	      2.62246066	     12.76886664	     10.03830467	     -2.76565127	     41.60980863	      0.72622816	     25.32917182
     17.27333333	      1.59054572	      7.28433883	      1.97464028	      2.24690346	      0.93254150	      0.98441858	     20.17130466	    -14.40517344	     -3.21628629	     87.11449591	      1.52043478	      3.15909896	     10.80280969	      9.99363044	     -3.09035825	     40.39846443	      0.70508622	     25.43493547
     17.28000000	      1.63572667	      7.05400928	      1.54599894	      2.24710202	      0.93450116	      0.98476749	     21.45447520	    -14.24347691	     -3.01839722	     86.12833378	      1.50322300	      3.62991799	      8.94220654	      9.74807516	     -3.14067072	     39.14885914	      0.68327649	     25.33618023
     17.28666667	      1.75959124	      6.76572779	      1.13269519	      2.24746759	      0.93704140	      0.98513364	     22.47835380	    -14.00328474	     -2.98082786	     84.80107494	      1.48005797	      4.09210736	      6.91086309	      9.45287888	     -3.17216944	     37.71674931	      0.65828146	     24.98231333
     17.29333333	      1.45484263	      6.36645545	      0.85667777	      2.24795322	      0.93955818	      0.98545287	     23.81540882	    -13.62248892	     -3.12347437	     83.20127615	      1.45213621	      4.47905395	      5.35981240	      9.06475132	     -3.09938693	     36.29856600	      0.63352949	     24.38551961
     17.30000000	      1.92403325	      6.00749816	      0.38365477	      2.24862688	      0.94328431	      0.98596055	     24.13954015	    -13.30949532	     -3.37661924	     81.25893258	      1.41823592	      4.92608669	      2.80201302	      8.69698292	     -3.22795141	     34.51899002	      0.60247003	     23.47927292
     17.30666667	      1.95901833	      5.54353544	      0.05857760	      2.24939267	      0.94685792	      0.98638597	     24.76927434	    -12.88315299	     -3.82554736	     79.06399843	      1.37992709	      5.26985694	      0.77953978	      8.23606231	     -3.27573189	     32.82887160	      0.57297190	     22.33444729
     17.31333333	      1.97220311	      5.03135306	     -0.19637465	      2.25031240	      0.95068503	      0.98677345	     25.23198457	    -12.43353415	     -4.48112874	     76.59436711	      1.33682389	      5.59528436	     -1.21258222	      7.72756401	     -3.29843658	     31.11721432	      0.54309784	     20.92043943
